#!OML:ASF \\Waltz\H\Terrain\Patient Classification 1\Animal2\Wednesday\Animal2.ASF
:FULLY-SPECIFIED
:DEGREES
1
root 30.1677 15.9533 -33.218 16.7757 -36.8445 -0.988904
lowerback 15.6906 -1.85353 1.7775
upperback 0.710742 -2.27247 -1.38296
thorax -8.17922 -1.19999 -1.9778
lowerneck 9.01485 4.37803 15.5435
upperneck -19.3873 4.86461 -19.8918
head -6.25031 2.95686 -9.70047
rclavicle 3.83654e-014 -2.14687e-014
rhumerus -26.6056 -37.0164 -8.84688
rradius 134.623
rwrist -41.2031
rhand -20.2037 -6.41117
rfingers 7.12502
rthumb 6.14315 -36.3021
lclavicle 3.83654e-014 -2.14687e-014
lhumerus -34.1863 26.1161 -13.0973
lradius 130.829
lwrist 89.3199
lhand -42.2494 43.1522
lfingers 7.12502
lthumb -15.1354 72.5788
rfemur -49.4193 -17.4253 20.3476
rtibia 63.9336
rfoot -30.2487 4.8081
rtoes 15.5114
lfemur -50.4571 19.3625 -13.6005
ltibia 60.8539
lfoot -25.9018 -1.93932
ltoes -44.0232
2
root 30.1584 15.9569 -33.2043 16.6505 -36.8328 -0.921977
lowerback 15.6434 -1.79608 1.66594
upperback 0.806882 -2.21828 -1.39546
thorax -8.04195 -1.16854 -1.9424
lowerneck 9.32188 4.29552 15.4184
upperneck -18.4542 4.93741 -19.5417
head -6.02792 2.99341 -9.50554
rclavicle 1.59028e-015 -2.78299e-014
rhumerus -27.331 -37.2124 -8.1133
rradius 134.713
rwrist -40.4516
rhand -19.9591 -6.28914
rfingers 7.12502
rthumb 6.37926 -36.1731
lclavicle 1.59028e-015 -2.78299e-014
lhumerus -34.7638 26.1207 -13.6631
lradius 130.737
lwrist 89.9416
lhand -42.2902 42.7384
lfingers 7.12502
lthumb -15.1747 72.162
rfemur -49.2084 -17.4652 20.2524
rtibia 63.8663
rfoot -30.2144 4.83728
rtoes 15.4258
lfemur -50.2631 19.2961 -13.5957
ltibia 60.8095
lfoot -26.0489 -2.5248
ltoes -42.4801
3
root 30.1491 15.9539 -33.1948 16.6103 -36.7613 -1.07652
lowerback 15.6263 -1.81919 1.75413
upperback 0.928512 -2.23208 -1.37649
thorax -7.90413 -1.17637 -1.97072
lowerneck 9.77411 4.238 15.4768
upperneck -17.7314 5.03306 -19.4098
head -5.87709 3.05061 -9.44654
rclavicle -4.85035e-014 3.26007e-014
rhumerus -27.725 -37.4823 -7.65149
rradius 134.69
rwrist -40.1193
rhand -19.6168 -6.1762
rfingers 7.12502
rthumb 6.70972 -36.0499
lclavicle -4.85035e-014 3.26007e-014
lhumerus -35.0332 26.1245 -14.1576
lradius 130.332
lwrist 90.5538
lhand -42.0149 42.8996
lfingers 7.12502
lthumb -14.9095 72.343
rfemur -48.9586 -17.4959 20.3651
rtibia 63.8377
rfoot -30.3166 4.59325
rtoes 14.3427
lfemur -50.0816 19.2723 -13.3562
ltibia 60.8514
lfoot -25.8802 -3.38839
ltoes -40.6517
4
root 30.1401 15.9477 -33.1882 16.4974 -36.646 -1.09461
lowerback 15.6056 -1.8983 1.7884
upperback 1.08196 -2.33375 -1.40661
thorax -7.73474 -1.22516 -2.00192
lowerneck 9.7673 4.15858 15.7237
upperneck -16.7399 5.07655 -19.3838
head -5.56142 3.06068 -9.42033
rclavicle -8.11041e-014 -3.97569e-015
rhumerus -27.8012 -37.7669 -7.55364
rradius 134.496
rwrist -39.5105
rhand -19.537 -6.01899
rfingers 7.12502
rthumb 6.78679 -35.8902
lclavicle -8.11041e-014 -3.97569e-015
lhumerus -35.022 26.0621 -14.4903
lradius 129.704
lwrist 90.8338
lhand -41.7585 43.2473
lfingers 7.12502
lthumb -14.6625 72.7088
rfemur -48.7438 -17.5316 20.3348
rtibia 63.8384
rfoot -30.4018 4.57769
rtoes 14.4323
lfemur -49.9144 19.1212 -13.2197
ltibia 60.8614
lfoot -25.9168 -3.1163
ltoes -41.4026
5
root 30.1309 15.9462 -33.1763 16.3885 -36.6149 -0.960125
lowerback 15.4322 -1.93963 1.68866
upperback 1.19289 -2.41065 -1.43913
thorax -7.51985 -1.25761 -1.96884
lowerneck 9.80623 4.14498 15.5186
upperneck -15.9544 5.1726 -18.9912
head -5.33792 3.09661 -9.20239
rclavicle 4.81059e-014 -3.02153e-014
rhumerus -27.7462 -37.8201 -7.51192
rradius 134.274
rwrist -38.9724
rhand -19.221 -6.04016
rfingers 7.12502
rthumb 7.09187 -35.9013
lclavicle 4.81059e-014 -3.02153e-014
lhumerus -35.1106 25.8073 -14.6503
lradius 129.168
lwrist 90.8167
lhand -41.3729 43.4189
lfingers 7.12502
lthumb -14.2909 72.9072
rfemur -48.6387 -17.5354 20.1654
rtibia 63.8448
rfoot -30.5412 4.53017
rtoes 14.6916
lfemur -49.7916 18.9247 -13.2655
ltibia 60.8563
lfoot -25.8383 -2.54591
ltoes -41.3017
6
root 30.1206 15.955 -33.1567 16.391 -36.664 -1.08228
lowerback 15.3059 -1.94457 1.74903
upperback 1.21466 -2.40494 -1.3967
thorax -7.42646 -1.25538 -1.96251
lowerneck 10.4468 4.1074 15.0955
upperneck -15.6998 5.2306 -18.5199
head -5.39989 3.14142 -8.97935
rclavicle -1.11319e-014 2.38542e-014
rhumerus -27.7967 -37.5305 -7.2119
rradius 134.213
rwrist -39.3534
rhand -18.7084 -6.23797
rfingers 7.12502
rthumb 7.58661 -36.0819
lclavicle -1.11319e-014 2.38542e-014
lhumerus -35.1568 25.3233 -14.7905
lradius 128.657
lwrist 91.0123
lhand -41.2623 43.474
lfingers 7.12502
lthumb -14.1844 72.9698
rfemur -48.4244 -17.4096 20.1911
rtibia 63.7888
rfoot -30.6956 4.20749
rtoes 13.552
lfemur -49.5257 18.8644 -13.1065
ltibia 60.8101
lfoot -25.7086 -0.781701
ltoes -43.4004
7
root 30.1113 15.9627 -33.1426 16.4422 -36.6462 -1.26711
lowerback 15.315 -2.24388 1.76708
upperback 1.23263 -2.7764 -1.14702
thorax -7.41878 -1.43074 -1.62535
lowerneck 10.9745 4.40744 13.9494
upperneck -15.6514 5.5852 -18.0217
head -5.47489 3.36388 -8.63742
rclavicle -2.38542e-014 -5.56597e-015
rhumerus -26.4887 -37.1887 -7.82475
rradius 133.997
rwrist -39.6442
rhand -18.6058 -6.33138
rfingers 7.12502
rthumb 7.68561 -36.1717
lclavicle -2.38542e-014 -5.56597e-015
lhumerus -36.3013 24.7767 -15.5252
lradius 128.331
lwrist 91.3898
lhand -41.3837 43.6273
lfingers 7.12502
lthumb -14.3014 73.1148
rfemur -48.2063 -17.2296 20.2685
rtibia 63.7115
rfoot -30.6371 4.23199
rtoes 13.9374
lfemur -49.3058 18.7866 -12.8725
ltibia 60.7244
lfoot -25.6437 -1.00944
ltoes -42.3875
8
root 30.1024 15.9674 -33.1345 16.4772 -36.652 -1.22852
lowerback 15.2444 -1.99391 1.7506
upperback 1.14486 -2.4632 -1.3098
thorax -7.46629 -1.28262 -1.85861
lowerneck 11.2189 4.07657 14.7997
upperneck -15.1932 5.36628 -17.9901
head -5.3932 3.21738 -8.75465
rclavicle 3.85642e-014 4.13472e-014
rhumerus -27.6289 -37.1088 -6.84703
rradius 133.77
rwrist -39.8642
rhand -18.3276 -6.48907
rfingers 7.12502
rthumb 7.95419 -36.3194
lclavicle 3.85642e-014 4.13472e-014
lhumerus -35.2599 24.5076 -15.2
lradius 127.968
lwrist 91.6294
lhand -40.8453 43.3046
lfingers 7.12502
lthumb -13.7826 72.828
rfemur -48.1506 -17.1122 20.2102
rtibia 63.6191
rfoot -30.5988 4.22082
rtoes 14.4719
lfemur -49.2726 18.6459 -12.8706
ltibia 60.622
lfoot -25.6251 -1.73948
ltoes -41.0162
9
root 30.0931 15.975 -33.1214 16.2741 -36.7555 -0.910936
lowerback 15.13 -1.86693 1.47707
upperback 1.14436 -2.35498 -1.45315
thorax -7.39299 -1.22378 -1.88304
lowerneck 11.2152 3.95731 15.0957
upperneck -14.7807 5.32874 -17.7719
head -5.27497 3.16847 -8.70694
rclavicle -5.48646e-014 5.40694e-014
rhumerus -27.988 -36.994 -6.47388
rradius 133.477
rwrist -40.0384
rhand -18.0194 -6.77674
rfingers 7.12502
rthumb 8.25164 -36.5956
lclavicle -5.48646e-014 5.40694e-014
lhumerus -34.8484 24.1466 -15.2022
lradius 127.727
lwrist 91.8717
lhand -40.3173 43.0634
lfingers 7.12502
lthumb -13.2736 72.6207
rfemur -48.0237 -17.087 19.8737
rtibia 63.52
rfoot -30.6306 4.1166
rtoes 14.252
lfemur -49.0862 18.4986 -13.1319
ltibia 60.5037
lfoot -25.629 -1.76587
ltoes -40.5316
10
root 30.0872 15.9786 -33.109 16.1687 -36.628 -0.858068
lowerback 15.1189 -1.91048 1.50767
upperback 1.16648 -2.40944 -1.47877
thorax -7.36808 -1.25134 -1.91654
lowerneck 11.1672 3.94025 15.181
upperneck -14.5125 5.35781 -17.6508
head -5.18301 3.16909 -8.66428
rclavicle 6.36111e-014 -3.18055e-015
rhumerus -28.0335 -36.5865 -6.31278
rradius 133.185
rwrist -39.9787
rhand -18.1711 -6.9107
rfingers 7.12502
rthumb 8.10525 -36.7353
lclavicle 6.36111e-014 -3.18055e-015
lhumerus -34.6155 23.8837 -15.1562
lradius 127.56
lwrist 91.9827
lhand -40.4137 43.2078
lfingers 7.12502
lthumb -13.3665 72.759
rfemur -47.8002 -17.1395 19.7895
rtibia 63.4088
rfoot -30.6462 4.00545
rtoes 14.2231
lfemur -48.9106 18.2811 -13.1097
ltibia 60.4039
lfoot -25.6418 -1.94394
ltoes -39.4296
11
root 30.0803 15.9837 -33.1002 16.3562 -36.3755 -1.19079
lowerback 15.1183 -1.98359 1.84271
upperback 1.11114 -2.443 -1.40374
thorax -7.43974 -1.2777 -2.01833
lowerneck 11.105 3.92532 15.2986
upperneck -14.2397 5.39382 -17.5268
head -5.0852 3.17099 -8.62589
rclavicle 1.03368e-013 -7.23576e-014
rhumerus -28.0499 -36.0872 -6.16463
rradius 132.844
rwrist -39.8589
rhand -18.2759 -6.85538
rfingers 7.12502
rthumb 8.00409 -36.6838
lclavicle 1.03368e-013 -7.23576e-014
lhumerus -34.2889 23.5965 -15.0344
lradius 127.516
lwrist 92.0631
lhand -40.3074 43.2257
lfingers 7.12502
lthumb -13.2641 72.7836
rfemur -47.5985 -17.0801 20.0949
rtibia 63.2604
rfoot -30.7864 3.69159
rtoes 13.8776
lfemur -48.8664 18.0956 -12.732
ltibia 60.3104
lfoot -25.6081 -1.13791
ltoes -41.6362
12
root 30.0652 15.9991 -33.0829 16.2345 -36.3886 -1.11898
lowerback 15.0743 -1.92662 1.7435
upperback 1.09236 -2.39039 -1.46887
thorax -7.43145 -1.25037 -2.04389
lowerneck 10.8955 3.86731 15.6077
upperneck -13.8958 5.38194 -17.4582
head -4.94075 3.13895 -8.62861
rclavicle -4.13472e-014 1.82882e-014
rhumerus -28.0886 -35.8704 -6.08269
rradius 132.452
rwrist -39.9145
rhand -18.0834 -6.66463
rfingers 7.12502
rthumb 8.18986 -36.4859
lclavicle -4.13472e-014 1.82882e-014
lhumerus -33.7083 23.2189 -14.7564
lradius 127.444
lwrist 92.0375
lhand -40.2231 43.0355
lfingers 7.12502
lthumb -13.1828 72.5988
rfemur -47.2816 -16.975 19.9637
rtibia 63.0919
rfoot -30.9937 3.36098
rtoes 12.8605
lfemur -48.5558 18.0475 -12.7417
ltibia 60.1856
lfoot -25.7762 -0.921069
ltoes -42.2301
13
root 30.048 16.0126 -33.063 16.0399 -36.5083 -0.887042
lowerback 14.9854 -1.86294 1.4455
upperback 1.02392 -2.36112 -1.51474
thorax -7.44374 -1.22784 -1.93166
lowerneck 11.0287 3.78531 15.7622
upperneck -13.7805 5.32399 -17.4643
head -4.93544 3.10865 -8.6561
rclavicle 4.81059e-014 -1.90833e-014
rhumerus -27.9205 -35.532 -6.07221
rradius 132.096
rwrist -39.9094
rhand -18.1507 -6.56599
rfingers 7.12502
rthumb 8.12487 -36.3898
lclavicle 4.81059e-014 -1.90833e-014
lhumerus -33.1089 22.8197 -14.4058
lradius 127.247
lwrist 91.9397
lhand -40.6991 42.7908
lfingers 7.12502
lthumb -13.6417 72.3237
rfemur -47.0153 -16.954 19.7058
rtibia 62.9132
rfoot -31.0687 3.06109
rtoes 11.7339
lfemur -48.2168 18.1017 -12.9393
ltibia 60.0354
lfoot -26.8767 -1.73387
ltoes -39.182
14
root 30.0359 16.0204 -33.0493 16.1781 -36.4691 -0.977196
lowerback 14.7531 -1.9207 1.44192
upperback 0.943223 -2.43143 -1.41122
thorax -7.39934 -1.26 -1.80918
lowerneck 11.3143 3.79671 15.5583
upperneck -13.9044 5.3491 -17.3367
head -5.02971 3.13147 -8.59638
rclavicle -6.71892e-014 2.06736e-014
rhumerus -27.4773 -35.0952 -6.16825
rradius 131.878
rwrist -40.0199
rhand -18.4872 -6.76303
rfingers 7.12502
rthumb 7.80016 -36.5991
lclavicle -6.71892e-014 2.06736e-014
lhumerus -32.8566 22.5704 -14.1245
lradius 127.146
lwrist 91.7281
lhand -40.9066 43.603
lfingers 7.12502
lthumb -13.8416 73.1225
rfemur -46.9397 -16.9311 19.8185
rtibia 62.7304
rfoot -31.0706 2.5156
rtoes 10.3085
lfemur -48.1543 18.089 -12.8646
ltibia 59.8843
lfoot -25.9541 -0.448935
ltoes -43.4964
